# xmcd CD database file
#
# Track frame offsets:
#	150
#	15101
#	31314
#	47848
#	61761
#	77660
#	93191
#	107891
#	121774
#	137160
#	154899
#	165477
#	179439
#	194937
#
# Disc length: 2775 seconds
#
# Revision: 0
# Processed by: cddbd v1.5.2PL0 Copyright (c) Steve Scherf et al.
# Submitted via: CDex 1.51
#
DISCID=af0ad50e
DTITLE=The BossHoss - Do Or Die
DYEAR=2009
DGENRE=Country
TTITLE0=21st Century Buttkickin' Love
TTITLE1=Boon And Bain
TTITLE2=Break Free
TTITLE3=Close
TTITLE4=Crazy About Mary
TTITLE5=Eagleize It
TTITLE6=Go! Go! Go!
TTITLE7=Guitars And Cars
TTITLE8=Jelly Bean
TTITLE9=Last Day
TTITLE10=Quick Joey Small
TTITLE11=Rock On Rock
TTITLE12=Shake Your Hips
TTITLE13=Wolf Call
EXTD=YEAR: 2009
EXTT0=
EXTT1=
EXTT2=
EXTT3=
EXTT4=
EXTT5=
EXTT6=
EXTT7=
EXTT8=
EXTT9=
EXTT10=
EXTT11=
EXTT12=
EXTT13=
PLAYORDER=
